<svg width="144" height="24" viewBox="0 0 144 24" fill="none" xmlns="http://www.w3.org/2000/svg">
<path d="M15.8835 0L0 8.03767V23.9926H17.318L33.2311 15.9625V0H15.8835ZM30.9195 14.7358H29.6115L17.4592 4.88431V21.6972H2.27437V9.45253L13.5645 3.74038V5.69711L3.9913 10.5437V13.3058H13.5645V15.0368H3.9913V19.9662H15.7422V2.40829H17.147L29.2026 12.192V2.40829H30.9195V14.7358Z" fill="#6400FF"/>
<path d="M80.2145 7.18701H77.5312V19.4016H80.2145V7.18701Z" fill="black"/>
<path d="M80.3491 3.38623H77.3984V5.96009H80.3491V3.38623Z" fill="black"/>
<path d="M94.7916 7.18686V17.55C94.7916 21.8548 92.7303 24.0047 88.6077 23.9997C87.5488 24.008 86.4944 23.8583 85.4786 23.5557C84.5831 23.3077 83.7513 22.8661 83.0407 22.2612L84.2373 20.1164C84.7993 20.5892 85.445 20.9494 86.1401 21.1775C86.8885 21.4395 87.6746 21.5742 88.4665 21.5764C88.9653 21.6216 89.4681 21.5642 89.9445 21.4077C90.4209 21.2513 90.8611 20.9989 91.2388 20.6658C91.8821 19.8879 92.1971 18.8849 92.1159 17.8737V17.234C91.6614 17.7666 91.0881 18.1819 90.4436 18.4456C89.753 18.7224 89.0159 18.8604 88.2732 18.852C87.2342 18.8685 86.2092 18.609 85.3002 18.0994C84.4271 17.6092 83.7063 16.882 83.219 15.9997C82.7213 15.0507 82.4609 13.9925 82.4609 12.9179C82.4609 11.8433 82.7213 10.7851 83.219 9.83598C83.7095 8.9638 84.4301 8.24714 85.3002 7.76635C86.2109 7.26098 87.2348 7.00178 88.2732 7.01376C89.0494 7.00281 89.8202 7.14865 90.5401 7.44274C91.2126 7.73232 91.801 8.19081 92.2497 8.77482V7.14923L94.7916 7.18686ZM91.1793 15.4654C91.5043 15.1341 91.7585 14.7387 91.926 14.3036C92.0935 13.8686 92.1708 13.4033 92.153 12.9367C92.1702 12.4758 92.0925 12.0164 91.9248 11.5875C91.7572 11.1587 91.5034 10.7698 91.1793 10.4456C90.4862 9.82447 89.5927 9.48159 88.6672 9.48159C87.7416 9.48159 86.848 9.82447 86.1549 10.4456C85.8285 10.7683 85.5725 11.1567 85.4035 11.5858C85.2345 12.0149 85.1563 12.4751 85.1738 12.9367C85.1556 13.404 85.2334 13.87 85.4023 14.3053C85.5712 14.7405 85.8275 15.1356 86.1549 15.4654C86.8458 16.0911 87.7402 16.437 88.6672 16.437C89.594 16.437 90.4885 16.0911 91.1793 15.4654Z" fill="black"/>
<path d="M107.658 8.39848C108.125 8.94615 108.481 9.58163 108.705 10.2686C108.93 10.9556 109.018 11.6806 108.965 12.4023V19.4013H106.283V12.771C106.337 11.9005 106.073 11.0401 105.539 10.3552C105.287 10.0818 104.979 9.86736 104.636 9.72698C104.293 9.5866 103.924 9.52361 103.555 9.54242C103.12 9.52016 102.686 9.59338 102.281 9.75706C101.877 9.92074 101.513 10.171 101.214 10.4907C100.597 11.2611 100.29 12.2403 100.359 13.2301V19.4013H97.6758V3.38623H100.359V8.60168C100.81 8.09313 101.373 7.69875 102.002 7.45022C102.694 7.17336 103.435 7.03781 104.18 7.05135C104.82 7.02304 105.459 7.12798 106.056 7.35969C106.654 7.59141 107.2 7.94496 107.658 8.39848Z" fill="black"/>
<path d="M130.714 14.2083H121.691C121.814 15.0575 122.256 15.8257 122.925 16.3532C123.645 16.8804 124.52 17.1456 125.408 17.1058C125.988 17.1243 126.567 17.0156 127.103 16.787C127.64 16.5584 128.12 16.2154 128.514 15.7813L129.955 17.5423C129.441 18.2042 128.768 18.7223 128.001 19.0475C127.156 19.3925 126.251 19.5639 125.34 19.5517C124.181 19.5759 123.034 19.2986 122.01 18.7464C121.067 18.2279 120.293 17.4437 119.78 16.4887C119.264 15.492 119.008 14.3779 119.037 13.2526C119.015 12.1352 119.271 11.0302 119.78 10.039C120.265 9.10133 120.999 8.31937 121.899 7.78122C122.826 7.24296 123.878 6.96738 124.946 6.98346C125.986 6.9594 127.013 7.21937 127.919 7.73606C128.798 8.26219 129.512 9.02926 129.978 9.94868C130.491 10.974 130.746 12.1113 130.722 13.2601C130.758 13.5611 130.744 13.8471 130.714 14.2083ZM122.783 10.1519C122.175 10.7152 121.79 11.4826 121.698 12.3118H128.201C128.121 11.4895 127.749 10.7246 127.154 10.1594C126.544 9.63302 125.77 9.34385 124.969 9.34385C124.167 9.34385 123.393 9.63302 122.783 10.1594V10.1519Z" fill="black"/>
<path d="M142.656 8.39845C143.127 8.94436 143.488 9.57903 143.716 10.2661C143.944 10.9531 144.036 11.6791 143.987 12.4022V19.4013H141.304V12.771C141.365 11.9056 141.115 11.047 140.598 10.3552C140.34 10.0775 140.026 9.86073 139.677 9.72024C139.327 9.57974 138.952 9.51901 138.576 9.54238C138.141 9.52011 137.707 9.59335 137.302 9.75702C136.899 9.9207 136.534 10.171 136.235 10.4907C135.618 11.2611 135.311 12.2402 135.38 13.2301V19.4013H132.697V7.18677H135.253V8.78979C135.694 8.22382 136.269 7.78089 136.926 7.50286C137.648 7.2066 138.421 7.0607 139.201 7.07388C139.835 7.04571 140.469 7.14862 141.063 7.37634C141.657 7.60405 142.199 7.95181 142.656 8.39845Z" fill="black"/>
<path d="M52.2317 16.9102V19.4013H41.6328V3.38623H52.2317V5.88483H44.4275V10.0467H52.2317V12.4926H44.4275V16.9102H52.2317Z" fill="black"/>
<path d="M118.234 7.27697H115.536V4.48486H112.852V7.27697H110.154V9.73041H112.852V19.4012H115.536V9.73041H118.234V7.27697Z" fill="black"/>
<path d="M74.1723 16.0598V3.38623H71.4891V16.5415C71.4711 17.2808 71.7436 17.9971 72.2466 18.5333C72.7497 19.0694 73.4422 19.3816 74.1723 19.4013H75.1608V17.1436C75.0251 17.1397 74.8916 17.1085 74.768 17.0516C74.6444 16.9947 74.5333 16.9134 74.4412 16.8125C74.3491 16.7115 74.2779 16.5929 74.2317 16.4636C74.1855 16.3344 74.1653 16.1971 74.1723 16.0598Z" fill="black"/>
<path d="M65.7596 3.38623V14.3364L65.6778 14.231L57.3904 3.38623H55.0938V19.4013H57.777V8.44363L66.1534 19.4013H68.4501V3.38623H65.7596Z" fill="black"/>
</svg>
